<?xml version="1.0" standalone="no"?>
<!DOCTYPE svg PUBLIC "-//W3C//DTD SVG 20010904//EN"
 "http://www.w3.org/TR/2001/REC-SVG-20010904/DTD/svg10.dtd">
<svg version="1.0" xmlns="http://www.w3.org/2000/svg"
 width="500.000000pt" height="500.000000pt" viewBox="0 0 500.000000 500.000000"
 preserveAspectRatio="xMidYMid meet">
<metadata>
Created by potrace 1.14, written by Peter Selinger 2001-2017
</metadata>
<g transform="translate(0.000000,500.000000) scale(0.100000,-0.100000)"
fill="#000000" stroke="none">
<path d="M2060 3317 c-260 -36 -503 -233 -585 -474 -24 -68 -29 -104 -34 -209
-1 -6 -15 -14 -31 -18 -58 -11 -155 -66 -205 -115 -66 -65 -69 -70 -98 -128
-125 -246 -43 -530 193 -666 30 -18 57 -32 60 -32 3 0 28 -7 55 -15 42 -12
203 -14 1025 -15 929 0 977 1 1025 19 153 57 245 222 212 379 -16 75 -90 181
-152 215 -19 10 -20 21 -19 144 l0 133 -128 -2 c-115 -2 -128 -1 -129 15 -1
26 -1 161 0 208 l1 41 128 -1 127 -1 0 129 c1 80 -3 130 -10 132 -5 2 -64 4
-130 6 l-120 3 0 -134 0 -134 -123 -1 c-68 -1 -126 3 -129 7 -3 5 -4 65 -4
133 l2 125 -128 -2 -128 -1 -2 127 c0 69 -4 129 -7 133 -10 9 -601 9 -666 -1z"/>
<path d="M2994 3318 c-3 -4 -4 -61 -3 -127 1 -99 4 -121 17 -126 27 -10 222
-4 229 8 12 19 12 236 0 244 -15 9 -238 10 -243 1z"/>
<path d="M3773 3317 c-4 -6 -7 -64 -8 -129 -1 -105 1 -118 17 -124 29 -9 222
-2 235 9 7 5 10 14 7 19 -8 13 -8 194 0 207 4 5 1 13 -5 17 -19 12 -239 12
-246 1z"/>
<path d="M3515 2790 c-12 -20 -8 -231 4 -243 7 -7 55 -12 126 -12 108 0 115 1
116 20 5 112 4 213 -2 226 -7 14 -28 17 -123 18 -76 1 -117 -2 -121 -9z"/>
</g>
</svg>
